<?xml version="1.0" standalone="no"?><!DOCTYPE svg PUBLIC "-//W3C//DTD SVG 1.1//EN" "http://www.w3.org/Graphics/SVG/1.1/DTD/svg11.dtd"><svg t="1748339868479" class="icon" viewBox="0 0 1024 1024" version="1.1" xmlns="http://www.w3.org/2000/svg" p-id="6194" xmlns:xlink="http://www.w3.org/1999/xlink" width="200" height="200"><path d="M512 1024C230.4 1024 0 793.6 0 512S230.4 0 512 0s512 230.4 512 512-230.4 512-512 512z" fill="#3AB394" p-id="6195"></path><path d="M1023.56 529.112V494.88a508.596 508.596 0 0 0-8.456-77.088l-322.656-165.408-338.256 2.016s5.016 12.416-1 12.416c-31.112 0-75.584 30.104-77.288 68.408-6.024 135.368 121.448 165.68 121.448 165.68l73.272 107.088-2.008 58.592-73.272 1.008-2.008 119.208 104.168 236.832c4.824 0.136 9.632 0.368 14.496 0.368 275.864 0 502.44-221.144 511.56-494.888z" fill="#00875D" p-id="6196"></path><path d="M459.84 585.12h101.664V666H459.84z" fill="#8B7A5C" p-id="6197"></path><path d="M381.16 664.08h256.48v116.192H381.16z" fill="#DACEB6" p-id="6198"></path><path d="M637.656 786.096H381.16a5.82 5.82 0 0 1-5.824-5.832v-116.2a5.826 5.826 0 0 1 5.824-5.832h256.496a5.82 5.82 0 0 1 5.824 5.832v116.2a5.82 5.82 0 0 1-5.824 5.832m-250.664-11.664h244.84v-104.536h-244.84v104.536z" fill="#474341" p-id="6199"></path><path d="M457.984 666.544a5.828 5.828 0 0 1-5.832-5.832v-61.008c0-3.224 2.608-5.832 5.832-5.832s5.832 2.608 5.832 5.832v61.008a5.828 5.828 0 0 1-5.832 5.832M560.832 666.544a5.828 5.828 0 0 1-5.832-5.832v-61.008c0-3.224 2.608-5.832 5.832-5.832s5.832 2.608 5.832 5.832v61.008a5.834 5.834 0 0 1-5.832 5.832" fill="#474341" p-id="6200"></path><path d="M554.312 696.112h-31.584c-3.224 0-5.832-2.608-5.832-5.832s2.608-5.832 5.832-5.832h31.584a5.828 5.828 0 0 1 5.832 5.832 5.828 5.828 0 0 1-5.832 5.832" fill="#8B7A5C" p-id="6201"></path><path d="M602.168 759.312h-186.4a5.828 5.828 0 0 1-5.832-5.832v-64.272c0-1.56 0.624-3.056 1.728-4.144 1.112-1.096 2.392-1.664 4.168-1.688l87.216 1.064a5.832 5.832 0 0 1 5.752 5.904c-0.04 3.224-2.864 5.92-5.904 5.76l-81.312-0.992v52.536h174.768c0.04-6.696 0.152-17.784 0.48-26 0.128-3.224 2.904-5.48 6.056-5.592a5.83 5.83 0 0 1 5.592 6.056c-0.48 12.064-0.48 31.176-0.48 31.368a5.828 5.828 0 0 1-5.832 5.832" fill="#8B7A5C" p-id="6202"></path><path d="M678.784 251.376h-337.32s7.696 332.472 160.688 368.664c0 0 5.352 2.032 7.968 1.608 2.616 0.424 7.968-1.608 7.968-1.608 153-36.192 160.696-368.664 160.696-368.664" fill="#F7BE15" p-id="6203"></path><path d="M510.904 627.536c-0.256 0-0.52-0.008-0.776-0.024-3.592 0.232-8.152-1.304-10.032-2.016-65.04-15.336-112.824-83.376-141.312-201.992-20.952-87.232-23.112-171.144-23.136-171.984-0.04-1.576 0.56-3.08 1.656-4.208 1.096-1.12 2.6-1.76 4.168-1.76h337.312c1.568 0 3.072 0.64 4.168 1.76 1.096 1.128 1.696 2.632 1.656 4.208-0.024 0.84-2.184 84.752-23.136 171.984-28.488 118.608-76.272 186.656-142.04 202.208-1.128 0.48-5.064 1.824-8.528 1.824m-0.776-11.728c0.296 0 0.592 0.032 0.936 0.088 0.896-0.016 3.36-0.688 4.96-1.304 136.464-32.336 154.672-312.712 156.704-357.384H347.52c2.024 44.672 20.184 325.032 155.976 357.168 2.552 0.912 5.112 1.72 5.832 1.504 0.288-0.048 0.544-0.072 0.8-0.072" fill="#474341" p-id="6204"></path><path d="M755.616 341.224c-1.224-23.84-9.896-50.6-33.056-63.32-15-8.24-30.528-8.032-45.192-3.448-0.16 17.296 0.152 34.552-1.912 51.656 28.672-20.72 35.8 4.296 32.16 32.592-4.736 36.816-21.76 67.616-54.488 85.464-10.344 21.816-10.696 38.184-20.464 55.664 1.768-0.136-2.808-0.456-0.872-1.032 71.848-21.328 127.632-83.64 123.824-157.576" fill="#DD9D00" p-id="6205"></path><path d="M632.664 505.656a5.874 5.874 0 0 1-3.304-1.032c-3.248-1.416-3.848-3.88-3.888-5.36-0.08-2.392 1.72-4.8 3.936-5.792 3.56-7.264 5.624-14.408 7.96-22.52 2.488-8.608 5.304-18.376 10.48-29.296a5.756 5.756 0 0 1 2.472-2.616c29.304-15.968 46.632-43.248 51.504-81.096 2.456-19.096-0.864-30.272-5.24-32.872-3.448-2.064-9.76 0-17.728 5.752a5.83 5.83 0 1 1-9.2-5.424c1.68-13.904 1.752-28.328 1.824-42.28l0.056-8.736a5.82 5.82 0 0 1 4.088-5.512c18.016-5.64 34.76-4.32 49.736 3.904 21.304 11.704 34.448 36.528 36.064 68.136 3.68 71.44-46.976 137.528-123.664 162.128a6.676 6.676 0 0 1-5.096 2.616m24.952-57.32c-4.272 9.376-6.696 17.744-9.032 25.856-1.4 4.848-2.76 9.552-4.448 14.272 66.064-25.272 108.904-83.92 105.664-146.952-0.672-12.992-4.936-44.72-30.048-58.512-10.984-6.024-23.256-7.408-36.584-4.128l-0.024 4.312c-0.048 10.536-0.104 21.336-0.832 32.12 7.856-3.488 14.64-3.6 20.24-0.248 13.384 7.952 12.544 31.216 10.848 44.384-5.208 40.44-24.48 71.128-55.784 88.896" fill="#474341" p-id="6206"></path><path d="M263.2 341.224c1.224-23.84 9.896-50.6 33.056-63.32 15-8.24 30.528-8.032 45.192-3.448 0.16 17.296-0.152 34.552 1.912 51.656-28.664-20.72-35.8 4.296-32.16 32.592 4.736 36.816 21.76 67.616 54.488 85.464 10.344 21.816 10.696 38.184 20.464 55.664-1.768-0.136 2.808-0.456 0.872-1.032-71.848-21.328-127.632-83.64-123.824-157.576" fill="#F7BE15" p-id="6207"></path><path d="M386.144 505.656c-0.144 0-0.296-0.008-0.448-0.016-1.816-0.144-3.56-1.144-4.656-2.592-76.68-24.608-127.336-90.688-123.664-162.128 1.624-31.6 14.768-56.432 36.064-68.136 14.984-8.216 31.728-9.536 49.736-3.904a5.818 5.818 0 0 1 4.088 5.504l0.056 8.752c0.072 13.952 0.136 28.376 1.816 42.272 0.28 2.296-0.832 4.552-2.824 5.72s-4.496 1.056-6.376-0.296c-7.976-5.752-14.264-7.808-17.72-5.752-4.376 2.6-7.696 13.776-5.24 32.864 4.864 37.84 22.192 65.112 51.496 81.096 1.08 0.584 1.944 1.496 2.472 2.616 5.184 10.92 8 20.688 10.488 29.304 2.344 8.096 4.408 15.248 7.968 22.512 2.216 0.992 4.008 3.4 3.936 5.792-0.04 1.504-0.664 4.04-3.968 5.408a5.736 5.736 0 0 1-3.224 0.984m-64.168-228.52c-8.136 0-15.8 1.96-22.92 5.864-25.104 13.792-29.368 45.512-30.04 58.512-3.24 63.032 39.6 121.68 105.656 146.952-1.68-4.704-3.048-9.424-4.44-14.272-2.344-8.104-4.76-16.48-9.04-25.856-31.312-17.768-50.576-48.464-55.776-88.896-1.696-13.168-2.536-36.424 10.848-44.384 5.6-3.344 12.376-3.248 20.24 0.248-0.736-10.776-0.784-21.584-0.832-32.112l-0.032-4.32c-4.688-1.152-9.24-1.736-13.664-1.736m-58.776 64.08h0.08-0.08z" fill="#474341" p-id="6208"></path><path d="M531.768 258.168c53.656 104.768 56.832 225.064 25.944 338.512 107.2-75.672 115.824-338.512 115.824-338.512h-141.768z" fill="#DD9D00" p-id="6209"></path><path d="M403.664 453.504a5.834 5.834 0 0 1-5.648-4.416 528.6 528.6 0 0 1-5.272-23.336c-0.64-3.16 1.4-6.232 4.56-6.872a5.854 5.854 0 0 1 6.872 4.56c1.552 7.64 3.256 15.248 5.152 22.824a5.824 5.824 0 0 1-4.24 7.072c-0.48 0.112-0.952 0.168-1.424 0.168M390.584 401.688a5.824 5.824 0 0 1-5.728-4.792c-6.44-35.712-10.216-74.752-11.552-119.36a5.848 5.848 0 0 1 5.832-6.008h71.384a5.834 5.834 0 0 1 0 11.664h-65.368c1.472 41.536 5.136 78.104 11.176 111.632a5.83 5.83 0 0 1-5.744 6.864" fill="#B47B18" p-id="6210"></path></svg>