<?xml version="1.0" standalone="no"?><!DOCTYPE svg PUBLIC "-//W3C//DTD SVG 1.1//EN" "http://www.w3.org/Graphics/SVG/1.1/DTD/svg11.dtd"><svg t="1748340702759" class="icon" viewBox="0 0 1024 1024" version="1.1" xmlns="http://www.w3.org/2000/svg" p-id="1339" xmlns:xlink="http://www.w3.org/1999/xlink" width="200" height="200"><path d="M536.953154 464.455014m-448.014129 0a448.014129 448.014129 0 1 0 896.028258 0 448.014129 448.014129 0 1 0-896.028258 0Z" fill="#FFE585" p-id="1340"></path><path d="M547.508202 24.443486c-4.208867 0-8.421844 0.069874-12.601938 0.18496 223.698798 6.374953 403.072968 189.707267 403.072968 414.947398 0 229.272258-185.8601 415.132358-415.132358 415.132358-229.264038 0-415.132358-185.8601-415.132358-415.132358 0-36.112405 4.619889-71.143822 13.284236-104.54759a447.335942 447.335942 0 0 0-21.504679 137.429361c0 247.431216 200.591133 448.014129 448.014129 448.014129 247.431216 0 448.014129-200.582913 448.014129-448.014129s-200.582913-448.014129-448.014129-448.014129z" fill="#FF9900" opacity=".24" p-id="1341"></path><path d="M437.757071 1024h197.290626a16.440885 16.440885 0 0 0 0-32.881771h-197.290626a16.440885 16.440885 0 0 0 0 32.881771z" fill="#6E6E96" opacity=".29" p-id="1342"></path><path d="M708.480912 1024h57.543099a16.440885 16.440885 0 0 0 0-32.881771h-57.543099a16.440885 16.440885 0 0 0 0 32.881771zM359.112096 991.118229h-45.212435a16.440885 16.440885 0 0 0 0 32.881771h45.212435a16.440885 16.440885 0 0 0 0-32.881771z" fill="#6E6E96" opacity=".17" p-id="1343"></path><path d="M125.931017 487.061232c0-234.948474 190.459438-425.407911 425.407912-425.407912 229.851799 0 417.092934 182.300648 425.107865 410.187762 0.18085-5.182989 0.300046-10.378309 0.300046-15.60651 0-247.427106-200.591133-448.014129-448.014129-448.014129-247.431216 0-448.014129 200.587023-448.014129 448.014129 0 205.963193 138.991246 379.443306 328.308042 431.819856-164.955514-58.558324-283.095607-215.955141-283.095607-400.993196z" fill="#FFEFB5" p-id="1344"></path><path d="M802.103534 804.990965C725.731511 864.548072 634.040693 896.028258 536.953154 896.028258c-217.24164 0-401.342565-162.292091-428.227523-377.511502-1.12209-9.005495-9.338423-15.396889-18.352139-14.270689s-15.400999 9.342533-14.274799 18.348029C105.038762 754.233841 303.163763 928.910029 536.953154 928.910029c104.485937 0 203.168242-33.884665 285.372669-97.991788a16.440885 16.440885 0 1 0-20.222289-25.927276zM162.092745 250.435788C238.8799 116.24117 382.515696 32.881771 536.953154 32.881771c237.965376 0 431.573243 193.603757 431.573243 431.573243 0 25.598459-2.260622 51.24213-6.711991 76.219945a16.440885 16.440885 0 0 0 32.367993 5.778972 468.380276 468.380276 0 0 0 7.225769-81.990696c0-256.103783-208.351231-464.455014-464.455014-464.455015C370.752243 0 216.179148 89.705581 133.555478 234.109989a16.440885 16.440885 0 1 0 28.537267 16.325799z" fill="#6E6E96" p-id="1345"></path><path d="M332.654601 196.702864l61.530014 74.859462a16.449106 16.449106 0 0 1 6.12834-25.512144l-92.496422 40.337712a16.440885 16.440885 0 1 0 13.148598 30.140253l92.500532-40.337712a16.449106 16.449106 0 0 0 6.12423-25.512144L358.059879 175.818829a16.440885 16.440885 0 0 0-25.405278 20.884035zM790.870299 294.041126l-91.54696 31.75146a16.440885 16.440885 0 0 0-8.084806 24.957264l57.843146 82.677103a16.440885 16.440885 0 1 0 26.93839-18.849475L718.172814 331.900375a16.424445 16.424445 0 0 1 2.166087 14.488531 16.461437 16.461437 0 0 1-10.250892 10.468733l91.54696-31.75146a16.444996 16.444996 0 0 0 10.148137-20.921026 16.424445 16.424445 0 0 0-20.912807-10.144027z" fill="#6E6E96" p-id="1346"></path><path d="M193.975732 288.471776s-245.762466 63.67966-152.612519 155.247172c93.145837 91.559291 152.612519-155.247171 152.612519-155.247172z" fill="#89E0F5" p-id="1347"></path><path d="M189.85318 272.556999C172.988942 276.926165 24.556518 317.263877 5.863231 387.067766c-4.336284 16.181942-3.686869 41.180308 23.974921 68.373533 27.65768 27.193225 52.664266 27.411066 68.772224 22.799398 69.475072-19.885251 107.264447-168.983531 111.345897-185.917643a16.440885 16.440885 0 0 0-20.103093-19.766055z m-136.964907 159.435487c-19.798936-19.466008-16.387453-32.224136-15.265362-36.420672 10.39886-38.829261 103.951609-76.540542 160.475373-91.185261a16.440885 16.440885 0 0 1-20.107203-19.770164c-13.711698 56.778598-49.848765 150.976651-88.439633 162.012595-4.163654 1.196074-16.864238 4.82951-36.663175-14.636498z" fill="#6E6E96" p-id="1348"></path><path d="M881.241736 534.756241s222.646581 217.948598 67.555599 258.487711c-155.090983 40.530893-67.555598-258.487711-67.555599-258.487711z" fill="#89E0F5" p-id="1349"></path><path d="M869.741337 546.511474c-0.00411 0 0 0 0 0 37.259157 36.519317 130.766693 143.401513 116.060321 198.745644-4.097891 15.421551-17.562976 25.919056-41.172088 32.088498s-40.48568 3.604664-51.603829-7.842303c-35.479431-36.531648-16.383342-160.532916 3.986915-230.106632a16.436775 16.436775 0 0 1-11.619596 11.286667 16.469657 16.469657 0 0 1-15.651723-4.171874z m83.211432 262.634925c35.578076-9.297321 57.325257-27.961836 64.633231-55.459217 22.219857-83.667666-109.722359-215.872936-124.843864-230.673844a16.453216 16.453216 0 0 0-15.659944-4.159544 16.399783 16.399783 0 0 0-11.619595 11.286668c-5.94338 20.300383-56.330584 200.15545 3.986914 262.260895 19.823598 20.41547 47.921071 26.050583 83.503258 16.745042z" fill="#6E6E96" p-id="1350"></path><path d="M244.531455 452.979276c-4.151324 144.252329 70.432753 270.925241 191.211608 304.941434 120.778855 34.007972 250.493331-35.121842 322.237245-160.331515l-513.448853-144.609919z" fill="#C7A17B" p-id="1351"></path><path d="M228.09468 452.506601c-4.504803 156.644646 77.152965 285.7467 203.197013 321.242571 126.035828 35.491761 263.054167-32.014514 340.967524-167.984747a16.449106 16.449106 0 0 0-9.815209-23.999583L248.986935 437.154924a16.440885 16.440885 0 0 0-20.892255 15.351677z m515.62727 136.911474c-70.284785 122.657226-192.255604 184.014611-303.519297 152.678282-111.271913-31.336328-183.307652-147.334995-179.234423-288.644405a16.453216 16.453216 0 0 1-20.892255 15.351677l513.457073 144.614028a16.449106 16.449106 0 0 1-9.811098-23.999582z" fill="#6E6E96" p-id="1352"></path><path d="M462.862304 641.621996c-60.966914-17.172505-121.103562-15.068072-168.96298 2.198969 30.481402 54.653614 77.568098 95.546206 136.747065 112.221373 59.170747 16.666948 120.68432 6.350292 175.198185-24.365392-31.821334-39.704738-82.015357-72.886555-142.98227-90.05495z" fill="#FF8CA4" p-id="1353"></path><path d="M467.317784 625.797644c-62.253413-17.530094-125.822096-16.621735-179.000141 2.560668a16.432665 16.432665 0 0 0-8.779433 23.473474c33.592839 60.231184 85.669344 102.854179 146.640368 120.039015 60.971024 17.176615 127.638814 7.98205 187.72203-25.861513a16.428555 16.428555 0 0 0 8.072475-11.208574 16.420334 16.420334 0 0 0-3.308728-13.399321c-35.347904-44.127337-89.101379-78.073655-151.346571-95.603749zM597.767989 717.356935c-53.178044 29.951183-109.422313 37.859249-162.674341 22.861051s-97.1122-51.102382-126.841431-104.395512a16.428555 16.428555 0 0 1-8.779433 23.473474c46.778429-16.872459 103.219989-17.525984 158.929929-1.837269 55.70172 15.676384 103.503594 45.697441 134.597419 84.514372a16.457326 16.457326 0 0 1 4.767857-24.616116z" fill="#6E6E96" p-id="1354"></path><path d="M247.938828 516.708259l473.883863 133.475328a387.708961 387.708961 0 0 0 36.165837-52.590282L244.531455 452.979276a386.743059 386.743059 0 0 0 3.407373 63.728983z" fill="#FFFFFF" p-id="1355"></path><path d="M243.479238 532.532611l473.883862 133.471218a16.444996 16.444996 0 0 0 17.184836-5.421382 405.239055 405.239055 0 0 0 37.707171-54.822132 16.440885 16.440885 0 0 0-9.815209-23.999583L248.986935 437.154924a16.444996 16.444996 0 0 0-20.892255 15.355787 404.499215 404.499215 0 0 0 3.555341 66.437618 16.440885 16.440885 0 0 0 11.829217 13.584282z m-3.407373-63.728982l513.457073 144.609918a16.444996 16.444996 0 0 1-9.811098-24.003693 372.517583 372.517583 0 0 1-34.628615 50.358432 16.440885 16.440885 0 0 1 17.184835-5.417271L252.394308 500.883906a16.436775 16.436775 0 0 1 11.829217 13.584282 370.844723 370.844723 0 0 1-3.259405-61.020346 16.440885 16.440885 0 0 1-20.892255 15.355787z" fill="#6E6E96" p-id="1356"></path><path d="M247.938828 516.708259s21.607434 182.530821 169.024634 232.737174c147.413089 50.206354 298.636354-101.016911 298.636353-101.01691l-467.660987-131.720264z m170.8208 197.212531c-105.073699-31.147258-119.422482-140.688767-119.422481-140.688767l333.515692 82.298962c0 0.012331-109.019512 89.532952-214.093211 58.389805z" fill="#6E6E96" opacity=".15" p-id="1357"></path></svg>